<?xml version="1.0" encoding="utf-8"?>
<!-- Generated by IcoMoon.io -->
<!DOCTYPE svg PUBLIC "-//W3C//DTD SVG 1.1//EN" "http://www.w3.org/Graphics/SVG/1.1/DTD/svg11.dtd">

<svg version="1.1" xmlns="http://www.w3.org/2000/svg" xmlns:xlink="http://www.w3.org/1999/xlink" width="752" height="128" viewBox="0 0 752 128">
<defs>
<g id="icon-camera">
	<path class="path1" d="M10.667 2.667h10.667l2.667 4h4q1.656 0 2.828 1.193t1.172 2.849v14.646q0 1.656-1.172 2.818t-2.828 1.161h-24q-1.656 0-2.828-1.172t-1.172-2.828v-14.646q0-1.656 1.172-2.839t2.828-1.182h4zM16 10.667q1.354 0 2.589 0.531t2.125 1.422 1.422 2.125 0.531 2.589-0.531 2.589-1.422 2.125-2.125 1.422-2.589 0.531-2.589-0.531-2.125-1.422-1.422-2.125-0.531-2.589 0.531-2.589 1.422-2.125 2.125-1.422 2.589-0.531zM16 13.333q-1.656 0-2.828 1.172t-1.172 2.828 1.172 2.828 2.828 1.172 2.828-1.172 1.172-2.828-1.172-2.828-2.828-1.172zM22.573 9.333l-2.615-4h-7.865l-2.667 4h-5.427q-0.552 0-0.943 0.396t-0.391 0.958v14.646q0 0.552 0.391 0.943t0.943 0.391h24q0.563 0 0.948-0.38t0.385-0.932v-14.646q0-0.563-0.396-0.969t-0.938-0.406h-5.427z"></path>
</g>
<g id="icon-cog">
	<path class="path1" d="M16 0q1.656 0 2.828 1.172t1.172 2.828v0.688q0.49 0.167 1.177 0.479l0.479-0.479q1.177-1.177 2.833-1.177 1.646 0 2.823 1.177t1.177 2.823q0 1.656-1.177 2.833l-0.479 0.479q0.313 0.688 0.479 1.177h0.688q1.656 0 2.828 1.172t1.172 2.828-1.172 2.828-2.828 1.172h-0.688q-0.167 0.49-0.479 1.177l0.479 0.479q1.177 1.177 1.177 2.833 0 1.646-1.177 2.823t-2.823 1.177q-1.656 0-2.833-1.177l-0.479-0.479q-0.688 0.313-1.177 0.479v0.688q0 1.656-1.172 2.828t-2.828 1.172-2.828-1.172-1.172-2.828v-0.688q-0.49-0.167-1.177-0.479l-0.479 0.479q-1.177 1.177-2.823 1.177-1.656 0-2.828-1.177t-1.172-2.823q0-1.667 1.167-2.833l0.479-0.479q-0.313-0.688-0.479-1.177h-0.688q-1.656 0-2.828-1.172t-1.172-2.828 1.172-2.828 2.828-1.172h0.688q0.167-0.49 0.479-1.177l-0.479-0.479q-1.167-1.167-1.167-2.833 0-1.646 1.172-2.823t2.828-1.177q1.646 0 2.823 1.177l0.479 0.479q0.688-0.313 1.177-0.479v-0.688q0-1.656 1.172-2.828t2.828-1.172zM16 2.667q-0.552 0-0.943 0.391t-0.391 0.943v2.76q-2.333 0.333-4.26 1.76l-1.948-1.948q-0.396-0.396-0.938-0.396-0.552 0-0.943 0.391t-0.391 0.943q0 0.562 0.385 0.948l1.948 1.948q-1.427 1.927-1.76 4.26h-2.76q-0.552 0-0.943 0.391t-0.391 0.943 0.391 0.943 0.943 0.391h2.76q0.333 2.333 1.76 4.26l-1.948 1.948q-0.385 0.385-0.385 0.948 0 0.552 0.391 0.943t0.943 0.391q0.542 0 0.937-0.396l1.948-1.948q1.927 1.427 4.26 1.76v2.76q0 0.552 0.391 0.943t0.943 0.391 0.943-0.391 0.391-0.943v-2.76q2.333-0.333 4.26-1.76l1.948 1.948q0.396 0.396 0.948 0.396t0.943-0.391 0.391-0.943-0.396-0.948l-1.948-1.948q1.427-1.927 1.76-4.26h2.76q0.552 0 0.943-0.391t0.391-0.943-0.391-0.943-0.943-0.391h-2.76q-0.333-2.333-1.76-4.26l1.948-1.948q0.396-0.396 0.396-0.948t-0.391-0.943-0.943-0.391-0.948 0.396l-1.948 1.948q-1.927-1.427-4.26-1.76v-2.76q0-0.552-0.391-0.943t-0.943-0.391zM16 10.667q2.208 0 3.771 1.563t1.563 3.771-1.563 3.771-3.771 1.563-3.771-1.563-1.563-3.771 1.563-3.771 3.771-1.563zM16 13.333q-1.104 0-1.885 0.781t-0.781 1.885 0.781 1.885 1.885 0.781 1.885-0.781 0.781-1.885-0.781-1.885-1.885-0.781z"></path>
</g>
<g id="icon-align-justify">
	<path class="path1" d="M4 6.667h24q0.552 0 0.943 0.391t0.391 0.943-0.391 0.943-0.943 0.391h-24q-0.552 0-0.943-0.391t-0.391-0.943 0.391-0.943 0.943-0.391zM4 22.667h24q0.552 0 0.943 0.391t0.391 0.943-0.391 0.943-0.943 0.391h-24q-0.552 0-0.943-0.391t-0.391-0.943 0.391-0.943 0.943-0.391zM4 17.333h24q0.552 0 0.943 0.391t0.391 0.943-0.391 0.943-0.943 0.391h-24q-0.552 0-0.943-0.391t-0.391-0.943 0.391-0.943 0.943-0.391zM4 12h24q0.552 0 0.943 0.391t0.391 0.943-0.391 0.943-0.943 0.391h-24q-0.552 0-0.943-0.391t-0.391-0.943 0.391-0.943 0.943-0.391z"></path>
</g>
<g id="icon-circle-plus">
	<path class="path1" d="M16 1.333q2.99 0 5.703 1.161t4.677 3.125 3.125 4.677 1.161 5.703-1.161 5.703-3.125 4.677-4.677 3.125-5.703 1.161-5.703-1.161-4.677-3.125-3.125-4.677-1.161-5.703 1.161-5.703 3.125-4.677 4.677-3.125 5.703-1.161zM16 4q-2.438 0-4.661 0.953t-3.828 2.557-2.557 3.828-0.953 4.661 0.953 4.661 2.557 3.828 3.828 2.557 4.661 0.953 4.661-0.953 3.828-2.557 2.557-3.828 0.953-4.661-0.953-4.661-2.557-3.828-3.828-2.557-4.661-0.953zM16 9.333q0.552 0 0.943 0.391t0.391 0.943v4h4q0.552 0 0.943 0.391t0.391 0.943-0.391 0.943-0.943 0.391h-4v4q0 0.552-0.391 0.943t-0.943 0.391-0.943-0.391-0.391-0.943v-4h-4q-0.552 0-0.943-0.391t-0.391-0.943 0.391-0.943 0.943-0.391h4v-4q0-0.552 0.391-0.943t0.943-0.391z"></path>
</g>
<g id="icon-circle-minus">
	<path class="path1" d="M16 1.333q2.99 0 5.703 1.161t4.677 3.125 3.125 4.677 1.161 5.703-1.161 5.703-3.125 4.677-4.677 3.125-5.703 1.161-5.703-1.161-4.677-3.125-3.125-4.677-1.161-5.703 1.161-5.703 3.125-4.677 4.677-3.125 5.703-1.161zM16 4q-2.438 0-4.661 0.953t-3.828 2.557-2.557 3.828-0.953 4.661 0.953 4.661 2.557 3.828 3.828 2.557 4.661 0.953 4.661-0.953 3.828-2.557 2.557-3.828 0.953-4.661-0.953-4.661-2.557-3.828-3.828-2.557-4.661-0.953zM10.667 14.667h10.667q0.552 0 0.943 0.391t0.391 0.943-0.391 0.943-0.943 0.391h-10.667q-0.552 0-0.943-0.391t-0.391-0.943 0.391-0.943 0.943-0.391z"></path>
</g>
<g id="icon-circle-check">
	<path class="path1" d="M16 1.333q2.99 0 5.703 1.161t4.677 3.125 3.125 4.677 1.161 5.703-1.161 5.703-3.125 4.677-4.677 3.125-5.703 1.161-5.703-1.161-4.677-3.125-3.125-4.677-1.161-5.703 1.161-5.703 3.125-4.677 4.677-3.125 5.703-1.161zM16 4q-2.438 0-4.661 0.953t-3.828 2.557-2.557 3.828-0.953 4.661 0.953 4.661 2.557 3.828 3.828 2.557 4.661 0.953 4.661-0.953 3.828-2.557 2.557-3.828 0.953-4.661-0.953-4.661-2.557-3.828-3.828-2.557-4.661-0.953zM20.49 11.99q0.552 0 0.943 0.391t0.391 0.943-0.396 0.948l-5.656 5.656q-0.385 0.385-0.938 0.385-0.563 0-0.948-0.385l-2.833-2.823q-0.385-0.385-0.385-0.948 0-0.552 0.391-0.943t0.943-0.391 0.948 0.396l1.885 1.885 4.708-4.719q0.396-0.396 0.948-0.396z"></path>
</g>
<g id="icon-circle-cross">
	<path class="path1" d="M16 1.333q2.99 0 5.703 1.161t4.677 3.125 3.125 4.677 1.161 5.703-1.161 5.703-3.125 4.677-4.677 3.125-5.703 1.161-5.703-1.161-4.677-3.125-3.125-4.677-1.161-5.703 1.161-5.703 3.125-4.677 4.677-3.125 5.703-1.161zM16 4q-2.438 0-4.661 0.953t-3.828 2.557-2.557 3.828-0.953 4.661 0.953 4.661 2.557 3.828 3.828 2.557 4.661 0.953 4.661-0.953 3.828-2.557 2.557-3.828 0.953-4.661-0.953-4.661-2.557-3.828-3.828-2.557-4.661-0.953zM19.771 10.885q0.552 0 0.948 0.391t0.396 0.943-0.396 0.948l-2.833 2.833 2.833 2.823q0.396 0.396 0.396 0.938 0 0.552-0.396 0.943t-0.948 0.391-0.938-0.385l-2.833-2.823-2.823 2.823q-0.385 0.385-0.948 0.385-0.552 0-0.943-0.385t-0.391-0.938q0-0.563 0.385-0.948l2.833-2.823-2.833-2.833q-0.385-0.385-0.385-0.938t0.391-0.948 0.943-0.396 0.948 0.396l2.823 2.833 2.833-2.833q0.396-0.396 0.938-0.396z"></path>
</g>
<g id="icon-square-plus">
	<path class="path1" d="M5.333 1.333h21.333q1.656 0 2.828 1.172t1.172 2.828v21.333q0 1.656-1.172 2.828t-2.828 1.172h-21.333q-1.656 0-2.828-1.172t-1.172-2.828v-21.333q0-1.656 1.172-2.828t2.828-1.172zM26.667 4h-21.333q-0.552 0-0.943 0.391t-0.391 0.943v21.333q0 0.552 0.391 0.943t0.943 0.391h21.333q0.552 0 0.943-0.391t0.391-0.943v-21.333q0-0.552-0.391-0.943t-0.943-0.391zM16 9.333q0.552 0 0.943 0.391t0.391 0.943v4h4q0.552 0 0.943 0.391t0.391 0.943-0.391 0.943-0.943 0.391h-4v4q0 0.552-0.391 0.943t-0.943 0.391-0.943-0.391-0.391-0.943v-4h-4q-0.552 0-0.943-0.391t-0.391-0.943 0.391-0.943 0.943-0.391h4v-4q0-0.552 0.391-0.943t0.943-0.391z"></path>
</g>
<g id="icon-square-check">
	<path class="path1" d="M5.333 1.333h21.333q1.656 0 2.828 1.172t1.172 2.828v21.333q0 1.656-1.172 2.828t-2.828 1.172h-21.333q-1.656 0-2.828-1.172t-1.172-2.828v-21.333q0-1.656 1.172-2.828t2.828-1.172zM26.667 4h-21.333q-0.552 0-0.943 0.391t-0.391 0.943v21.333q0 0.552 0.391 0.943t0.943 0.391h21.333q0.552 0 0.943-0.391t0.391-0.943v-21.333q0-0.552-0.391-0.943t-0.943-0.391zM21.333 11.365q0.542 0 0.938 0.391t0.396 0.943-0.396 0.948l-6.594 6.594q-0.385 0.385-0.938 0.385-0.563 0-0.948-0.385l-3.771-3.771q-0.385-0.385-0.385-0.948 0-0.552 0.391-0.943t0.943-0.391q0.542 0 0.938 0.396l2.823 2.833 5.656-5.656q0.396-0.396 0.948-0.396z"></path>
</g>
<g id="icon-cloud-upload">
	<path class="path1" d="M20 2.667q2.438 0 4.661 0.953t3.828 2.557 2.557 3.828 0.953 4.661q0 2.271-0.828 4.365t-2.25 3.667-3.396 2.609-4.193 1.286v-2.688q2.24-0.323 4.068-1.62t2.88-3.302 1.052-4.318q0-1.896-0.74-3.625t-1.99-2.979-2.979-1.99-3.625-0.74q-1.729 0-3.328 0.62t-2.813 1.682-2.031 2.542-1.057 3.156h-2.771q-2.208 0-3.771 1.563t-1.563 3.771q0 1.208 0.474 2.24t1.245 1.693 1.714 1.031 1.901 0.37h5.333v2.667h-5.333q-2.177 0-4.016-1.073t-2.911-2.911-1.073-4.016 1.073-4.016 2.911-2.911 4.016-1.073h0.688q0.823-2.323 2.479-4.13t3.964-2.839 4.87-1.031zM17.333 13.333q0.552 0 0.948 0.396l4 4q0.385 0.385 0.385 0.938 0 0.573-0.38 0.953t-0.953 0.38q-0.563 0-0.948-0.385l-1.719-1.729v8.781q0 0.552-0.391 0.943t-0.943 0.391-0.943-0.391-0.391-0.943v-8.781l-1.719 1.729q-0.385 0.385-0.948 0.385-0.552 0-0.943-0.391t-0.391-0.943q0-0.531 0.385-0.938l4-4q0.396-0.396 0.948-0.396z"></path>
</g>
<g id="icon-upload">
	<path class="path1" d="M6.667 0h18.667q1.656 0 2.828 1.172t1.172 2.828v18.667q0 1.656-1.172 2.828t-2.828 1.172h-5.333v-2.667h5.333q0.552 0 0.943-0.391t0.391-0.943v-18.667q0-0.552-0.391-0.943t-0.943-0.391h-18.667q-0.552 0-0.943 0.391t-0.391 0.943v18.667q0 0.552 0.391 0.943t0.943 0.391h5.333v2.667h-5.333q-1.656 0-2.828-1.172t-1.172-2.828v-18.667q0-1.656 1.172-2.828t2.828-1.172zM16 9.333q0.563 0 0.948 0.385l5.333 5.333q0.385 0.385 0.385 0.948 0 0.552-0.391 0.943t-0.943 0.391q-0.542 0-0.948-0.385l-3.052-3.063v16.781q0 0.552-0.391 0.943t-0.943 0.391-0.943-0.391-0.391-0.943v-16.781l-3.052 3.063q-0.406 0.385-0.948 0.385-0.552 0-0.943-0.391t-0.391-0.943q0-0.542 0.385-0.948l5.333-5.333q0.385-0.385 0.948-0.385z"></path>
</g>
<g id="icon-location">
	<path class="path1" d="M0 14.667l32-14.667-14.667 32-4-13.333zM17.854 24.458l8.729-19.042-19.042 8.729 7.938 2.375z"></path>
</g>
<g id="icon-location-2">
	<path class="path1" d="M16 1.333q2.99 0 5.703 1.161t4.677 3.125 3.125 4.677 1.161 5.703-1.161 5.703-3.125 4.677-4.677 3.125-5.703 1.161-5.703-1.161-4.677-3.125-3.125-4.677-1.161-5.703 1.161-5.703 3.125-4.677 4.677-3.125 5.703-1.161zM17.333 4.073v3.927q0 0.552-0.391 0.943t-0.943 0.391-0.943-0.391-0.391-0.943v-3.927q-2.063 0.229-3.911 1.135t-3.245 2.302-2.302 3.245-1.135 3.911h3.927q0.552 0 0.943 0.391t0.391 0.943-0.391 0.943-0.943 0.391h-3.927q0.229 2.063 1.135 3.911t2.302 3.245 3.245 2.302 3.911 1.135v-3.927q0-0.552 0.391-0.943t0.943-0.391 0.943 0.391 0.391 0.943v3.927q2.063-0.229 3.911-1.135t3.245-2.302 2.302-3.245 1.135-3.911h-3.927q-0.552 0-0.943-0.391t-0.391-0.943 0.391-0.943 0.943-0.391h3.927q-0.229-2.063-1.135-3.911t-2.302-3.245-3.245-2.302-3.911-1.135z"></path>
</g>
<g id="icon-head">
	<path class="path1" d="M16 0q2.177 0 4.016 1.073t2.911 2.911 1.073 4.016v4q0 1.667-0.646 3.156t-1.802 2.594q3.042 0.479 5.406 1.411t3.703 2.203 1.339 2.677v2.625q0 1.656-1.172 2.828t-2.828 1.172h-24q-1.656 0-2.828-1.172t-1.172-2.828v-2.635q0-1.406 1.339-2.677t3.698-2.203 5.401-1.401q-1.146-1.115-1.792-2.599t-0.646-3.151v-4q0-2.177 1.073-4.016t2.911-2.911 4.016-1.073zM16 20q-2.896 0-5.589 0.464t-4.693 1.297q-0.802 0.333-1.432 0.708t-0.958 0.677-0.495 0.526-0.167 0.359v2.635q0 0.552 0.391 0.943t0.943 0.391h24q0.552 0 0.943-0.391t0.391-0.943v-2.625q0-0.135-0.167-0.359t-0.495-0.526-0.958-0.677-1.432-0.719q-2-0.833-4.693-1.297t-5.589-0.464zM16 2.667q-2.208 0-3.771 1.563t-1.563 3.771v4q0 2.208 1.563 3.771t3.771 1.563 3.771-1.563 1.563-3.771v-4q0-2.208-1.563-3.771t-3.771-1.563z"></path>
</g>
<g id="icon-share">
	<path class="path1" d="M24 2.667q2.208 0 3.771 1.563t1.563 3.771-1.563 3.771-3.771 1.563q-1.177 0-2.224-0.484t-1.797-1.349l-6.76 3.385q0.115 0.552 0.115 1.115t-0.115 1.115l6.76 3.385q0.75-0.865 1.797-1.349t2.224-0.484q2.208 0 3.771 1.563t1.563 3.771-1.563 3.771-3.771 1.563-3.771-1.563-1.563-3.771q0-0.563 0.115-1.115l-6.76-3.385q-0.75 0.865-1.797 1.349t-2.224 0.484q-2.208 0-3.771-1.563t-1.563-3.771 1.563-3.771 3.771-1.563q1.177 0 2.224 0.484t1.797 1.349l6.76-3.385q-0.115-0.552-0.115-1.115 0-2.208 1.563-3.771t3.771-1.563zM8 13.333q-1.104 0-1.885 0.781t-0.781 1.885 0.781 1.885 1.885 0.781 1.885-0.781 0.781-1.885-0.781-1.885-1.885-0.781zM24 21.333q-1.104 0-1.885 0.781t-0.781 1.885 0.781 1.885 1.885 0.781 1.885-0.781 0.781-1.885-0.781-1.885-1.885-0.781zM24 5.333q-1.104 0-1.885 0.781t-0.781 1.885 0.781 1.885 1.885 0.781 1.885-0.781 0.781-1.885-0.781-1.885-1.885-0.781z"></path>
</g>
<g id="icon-cross">
	<path class="path1" d="M25.333 5.333q0.573 0 0.953 0.38t0.38 0.953q0 0.563-0.385 0.948l-8.396 8.385 8.396 8.385q0.385 0.385 0.385 0.948 0 0.573-0.38 0.953t-0.953 0.38q-0.563 0-0.948-0.385l-8.385-8.396-8.385 8.396q-0.385 0.385-0.948 0.385-0.573 0-0.953-0.38t-0.38-0.953q0-0.563 0.385-0.948l8.396-8.385-8.396-8.385q-0.385-0.385-0.385-0.948 0-0.573 0.38-0.953t0.953-0.38q0.563 0 0.948 0.385l8.385 8.396 8.385-8.396q0.385-0.385 0.948-0.385z"></path>
</g>
<g id="icon-outbox">
	<path class="path1" d="M16 1.396q0.563 0 0.948 0.385l6.667 6.667q0.385 0.385 0.385 0.948 0 0.573-0.38 0.953t-0.953 0.38q-0.563 0-0.948-0.385l-4.385-4.396v15.448q0 0.552-0.391 0.943t-0.943 0.391-0.943-0.391-0.391-0.943v-15.448l-4.385 4.396q-0.406 0.385-0.948 0.385-0.552 0-0.943-0.391t-0.391-0.943q0-0.542 0.385-0.948l6.667-6.667q0.385-0.385 0.948-0.385zM29.333 20.063q0.552 0 0.943 0.391t0.391 0.943v5.333q0 1.667-1.156 2.823-1.177 1.177-2.813 1.177h-21.365q-1.635 0-2.833-1.167-1.167-1.198-1.167-2.833v-5.333q0-0.552 0.391-0.943t0.943-0.391 0.943 0.391 0.391 0.943v5.333q0 0.552 0.391 0.943t0.943 0.391h21.365q0.542 0 0.922-0.391t0.38-0.943v-5.333q0-0.552 0.391-0.943t0.943-0.391z"></path>
</g>
<g id="icon-twitter">
	<path class="path1" d="M32 6.076c-1.177 0.522-2.443 0.875-3.771 1.034 1.355-0.813 2.396-2.099 2.887-3.632-1.269 0.752-2.674 1.299-4.169 1.593-1.198-1.276-2.904-2.073-4.792-2.073-3.626 0-6.565 2.939-6.565 6.565 0 0.515 0.058 1.016 0.17 1.496-5.456-0.274-10.294-2.888-13.532-6.86-0.565 0.97-0.889 2.097-0.889 3.301 0 2.278 1.159 4.287 2.921 5.465-1.076-0.034-2.088-0.329-2.974-0.821-0.001 0.027-0.001 0.055-0.001 0.083 0 3.181 2.263 5.834 5.266 6.437-0.551 0.15-1.131 0.23-1.73 0.23-0.423 0-0.834-0.041-1.235-0.118 0.835 2.608 3.26 4.506 6.133 4.559-2.247 1.761-5.078 2.81-8.154 2.81-0.53 0-1.052-0.031-1.566-0.092 2.905 1.863 6.356 2.95 10.064 2.95 12.076 0 18.679-10.004 18.679-18.68 0-0.285-0.006-0.568-0.019-0.849 1.283-0.926 2.396-2.082 3.276-3.398z"></path>
</g>
<g id="icon-twitter2">
	<path class="path1" d="M26.667 0h-21.333c-2.934 0-5.334 2.4-5.334 5.334v21.332c0 2.936 2.4 5.334 5.334 5.334h21.333c2.934 0 5.333-2.398 5.333-5.334v-21.332c0-2.934-2.399-5.334-5.333-5.334zM26.189 10.682c0.010 0.229 0.015 0.46 0.015 0.692 0 7.069-5.288 15.221-14.958 15.221-2.969 0-5.732-0.886-8.059-2.404 0.411 0.050 0.83 0.075 1.254 0.075 2.463 0 4.73-0.855 6.529-2.29-2.3-0.043-4.242-1.59-4.911-3.715 0.321 0.063 0.65 0.096 0.989 0.096 0.479 0 0.944-0.066 1.385-0.188-2.405-0.492-4.217-2.654-4.217-5.245 0-0.023 0-0.045 0-0.067 0.709 0.401 1.519 0.641 2.381 0.669-1.411-0.959-2.339-2.597-2.339-4.453 0-0.98 0.259-1.899 0.712-2.689 2.593 3.237 6.467 5.366 10.836 5.589-0.090-0.392-0.136-0.8-0.136-1.219 0-2.954 2.354-5.349 5.257-5.349 1.512 0 2.879 0.65 3.838 1.689 1.198-0.24 2.323-0.685 3.338-1.298-0.393 1.249-1.226 2.298-2.311 2.96 1.063-0.129 2.077-0.417 3.019-0.842-0.705 1.073-1.596 2.015-2.623 2.769z"></path>
</g>
<g id="icon-twitter3">
	<path class="path1" d="M16 0c-8.837 0-16 7.163-16 16s7.163 16 16 16 16-7.163 16-16-7.163-16-16-16zM25.195 11.284c0.009 0.203 0.014 0.408 0.014 0.614 0 6.269-4.772 13.499-13.499 13.499-2.679 0-5.173-0.785-7.273-2.132 0.371 0.044 0.749 0.066 1.132 0.066 2.223 0 4.268-0.759 5.892-2.031-2.076-0.038-3.828-1.41-4.432-3.295 0.29 0.055 0.587 0.085 0.893 0.085 0.433 0 0.852-0.058 1.25-0.166-2.17-0.436-3.806-2.354-3.806-4.652 0-0.020 0-0.040 0-0.060 0.64 0.355 1.371 0.569 2.149 0.593-1.273-0.851-2.111-2.303-2.111-3.949 0-0.869 0.234-1.684 0.642-2.385 2.34 2.87 5.836 4.759 9.779 4.957-0.081-0.347-0.123-0.709-0.123-1.081 0-2.62 2.124-4.744 4.744-4.744 1.365 0 2.598 0.576 3.463 1.498 1.081-0.213 2.096-0.608 3.013-1.151-0.354 1.108-1.107 2.038-2.086 2.625 0.96-0.115 1.874-0.37 2.725-0.747-0.636 0.951-1.44 1.787-2.367 2.456z"></path>
</g>
<g id="icon-github">
	<path class="path1" d="M0 17.388c0 1.45 0.136 2.762 0.407 3.935 0.271 1.174 0.647 2.193 1.127 3.059 0.48 0.866 1.090 1.627 1.831 2.285 0.741 0.657 1.544 1.195 2.41 1.612 0.866 0.417 1.854 0.756 2.965 1.017 1.111 0.261 2.245 0.443 3.403 0.548 1.158 0.104 2.431 0.156 3.818 0.156 1.398 0 2.676-0.052 3.834-0.156 1.158-0.104 2.295-0.287 3.411-0.548 1.116-0.261 2.11-0.6 2.981-1.017 0.871-0.417 1.68-0.954 2.425-1.612 0.746-0.657 1.361-1.419 1.846-2.285 0.485-0.866 0.863-1.886 1.134-3.059 0.271-1.174 0.407-2.486 0.407-3.935 0-2.587-0.866-4.825-2.597-6.713 0.094-0.25 0.18-0.535 0.258-0.853 0.078-0.318 0.151-0.772 0.219-1.361 0.068-0.589 0.042-1.27-0.078-2.042-0.12-0.772-0.342-1.56-0.665-2.363l-0.235-0.047c-0.167-0.031-0.441-0.023-0.822 0.024s-0.824 0.141-1.33 0.282c-0.506 0.141-1.158 0.412-1.956 0.814-0.798 0.402-1.64 0.905-2.527 1.51-1.523-0.417-3.615-0.626-6.275-0.626-2.65 0-4.736 0.209-6.259 0.626-0.887-0.605-1.734-1.108-2.543-1.51-0.808-0.402-1.453-0.673-1.933-0.814-0.48-0.141-0.928-0.232-1.346-0.274-0.417-0.042-0.681-0.055-0.79-0.039-0.11 0.016-0.196 0.034-0.258 0.055-0.323 0.803-0.545 1.591-0.665 2.363-0.12 0.772-0.146 1.453-0.078 2.042 0.068 0.589 0.141 1.043 0.219 1.361 0.078 0.318 0.164 0.602 0.258 0.853-1.732 1.888-2.598 4.126-2.598 6.713zM3.928 21.315c0-1.502 0.683-2.879 2.050-4.131 0.407-0.376 0.881-0.66 1.424-0.853 0.542-0.193 1.155-0.302 1.839-0.329 0.683-0.026 1.338-0.021 1.964 0.016 0.626 0.037 1.398 0.086 2.316 0.149 0.918 0.063 1.711 0.094 2.379 0.094 0.668 0 1.46-0.031 2.378-0.094 0.918-0.063 1.69-0.112 2.316-0.149 0.626-0.037 1.28-0.042 1.964-0.016 0.683 0.026 1.296 0.136 1.839 0.329 0.542 0.193 1.017 0.477 1.424 0.853 1.367 1.231 2.050 2.608 2.050 4.131 0 0.897-0.112 1.693-0.337 2.386-0.224 0.694-0.511 1.275-0.861 1.745-0.349 0.469-0.834 0.868-1.455 1.197-0.621 0.329-1.226 0.582-1.815 0.759-0.589 0.177-1.346 0.316-2.269 0.415-0.923 0.099-1.747 0.159-2.472 0.18-0.725 0.021-1.646 0.031-2.762 0.031-1.116 0-2.037-0.010-2.762-0.031-0.725-0.021-1.549-0.081-2.472-0.18-0.923-0.099-1.68-0.237-2.269-0.415-0.589-0.177-1.194-0.43-1.815-0.759-0.621-0.329-1.106-0.728-1.455-1.197-0.349-0.469-0.636-1.051-0.861-1.745-0.224-0.694-0.336-1.489-0.336-2.386zM20 21c0-1.657 0.895-3 2-3s2 1.343 2 3c0 1.657-0.895 3-2 3-1.105 0-2-1.343-2-3zM8 21c0-1.657 0.895-3 2-3s2 1.343 2 3c0 1.657-0.895 3-2 3-1.105 0-2-1.343-2-3z"></path>
</g>
<g id="icon-github2">
	<path class="path1" d="M16 25.997c-0.599 0-1.197-0.31-1.817-0.93-0.244-0.244-0.244-0.64 0-0.884 0.244-0.244 0.64-0.244 0.884 0 0.381 0.382 0.687 0.567 0.933 0.567 0.246 0 0.552-0.185 0.933-0.567 0.244-0.244 0.64-0.244 0.884 0 0.244 0.244 0.244 0.64 0 0.884-0.62 0.62-1.218 0.93-1.817 0.93zM0 16.422c0 1.559 0.133 2.973 0.4 4.24 0.267 1.267 0.642 2.367 1.125 3.298 0.483 0.931 1.094 1.747 1.833 2.448 0.739 0.701 1.542 1.279 2.408 1.733 0.867 0.454 1.858 0.822 2.975 1.102 1.117 0.28 2.253 0.477 3.408 0.589 1.156 0.112 2.428 0.168 3.817 0.168 1.389 0 2.664-0.056 3.825-0.168 1.161-0.112 2.3-0.308 3.417-0.589 1.117-0.28 2.111-0.648 2.983-1.102 0.872-0.454 1.681-1.032 2.425-1.733 0.744-0.701 1.358-1.517 1.842-2.448 0.483-0.931 0.861-2.030 1.133-3.298 0.272-1.268 0.408-2.681 0.408-4.24 0-2.793-0.867-5.199-2.6-7.218 0.1-0.269 0.186-0.578 0.258-0.925 0.072-0.348 0.142-0.838 0.208-1.472 0.067-0.634 0.042-1.366-0.075-2.196-0.117-0.83-0.336-1.677-0.658-2.541l-0.25-0.051c-0.167-0.034-0.439-0.022-0.817 0.034-0.378 0.056-0.819 0.157-1.325 0.303-0.506 0.146-1.158 0.435-1.958 0.867-0.8 0.432-1.644 0.979-2.533 1.641-1.511-0.46-3.594-0.941-6.25-0.941-2.655 0-4.744 0.481-6.267 0.941-0.889-0.662-1.736-1.206-2.542-1.632-0.806-0.426-1.45-0.718-1.933-0.875-0.483-0.157-0.931-0.258-1.342-0.303-0.411-0.045-0.675-0.059-0.792-0.042-0.117 0.017-0.203 0.036-0.258 0.059-0.322 0.864-0.544 1.711-0.667 2.541-0.122 0.83-0.15 1.559-0.083 2.187 0.067 0.628 0.139 1.122 0.217 1.481 0.078 0.359 0.167 0.667 0.267 0.925-1.733 2.008-2.6 4.414-2.6 7.218zM4.267 19.981c0-1.813 0.667-3.457 2-4.933 0.4-0.45 0.864-0.791 1.392-1.022 0.528-0.231 1.128-0.363 1.8-0.394 0.672-0.031 1.314-0.025 1.925 0.019 0.611 0.044 1.367 0.103 2.267 0.178 0.9 0.075 1.678 0.113 2.333 0.113 0.655 0 1.433-0.037 2.333-0.113 0.9-0.075 1.656-0.134 2.267-0.178 0.611-0.044 1.253-0.050 1.925-0.019 0.672 0.031 1.275 0.163 1.808 0.394 0.533 0.231 1 0.572 1.4 1.022 1.333 1.476 2 3.12 2 4.933 0 1.063-0.111 2.010-0.333 2.842-0.222 0.832-0.503 1.529-0.842 2.091-0.339 0.563-0.814 1.038-1.425 1.426-0.611 0.388-1.203 0.688-1.775 0.9-0.572 0.212-1.311 0.378-2.217 0.497-0.906 0.119-1.717 0.191-2.433 0.216-0.717 0.025-1.619 0.038-2.708 0.038-1.089 0-1.989-0.013-2.7-0.038-0.711-0.025-1.519-0.097-2.425-0.216-0.906-0.119-1.644-0.285-2.217-0.497-0.572-0.213-1.164-0.513-1.775-0.9-0.611-0.388-1.086-0.863-1.425-1.426-0.339-0.563-0.62-1.26-0.842-2.091-0.222-0.832-0.333-1.779-0.333-2.842zM8 19c0-1.657 0.895-3 2-3s2 1.343 2 3c0 1.657-0.895 3-2 3-1.105 0-2-1.343-2-3zM20 19c0-1.657 0.895-3 2-3s2 1.343 2 3c0 1.657-0.895 3-2 3-1.105 0-2-1.343-2-3z"></path>
</g>
<g id="icon-github3">
	<path class="path1" d="M16 0c-8.837 0-16 7.163-16 16s7.163 16 16 16 16-7.163 16-16-7.163-16-16-16zM25.502 25.502c-1.235 1.235-2.672 2.204-4.272 2.881-0.406 0.172-0.819 0.323-1.238 0.453v-2.398c0-1.26-0.432-2.188-1.297-2.781 0.542-0.052 1.039-0.125 1.492-0.219s0.932-0.229 1.438-0.406 0.958-0.388 1.359-0.633 0.786-0.563 1.156-0.953 0.68-0.833 0.93-1.328 0.448-1.089 0.594-1.781 0.219-1.456 0.219-2.289c0-1.615-0.526-2.99-1.578-4.125 0.479-1.25 0.427-2.609-0.156-4.078l-0.391-0.047c-0.271-0.031-0.758 0.083-1.461 0.344s-1.492 0.688-2.367 1.281c-1.24-0.344-2.526-0.516-3.859-0.516-1.344 0-2.625 0.172-3.844 0.516-0.552-0.375-1.075-0.685-1.57-0.93-0.495-0.245-0.891-0.411-1.188-0.5s-0.573-0.143-0.828-0.164-0.419-0.026-0.492-0.016-0.125 0.021-0.156 0.031c-0.583 1.479-0.635 2.839-0.156 4.078-1.052 1.135-1.578 2.51-1.578 4.125 0 0.833 0.073 1.596 0.219 2.289s0.344 1.286 0.594 1.781 0.56 0.938 0.93 1.328 0.755 0.708 1.156 0.953 0.854 0.456 1.359 0.633 0.984 0.313 1.438 0.406 0.95 0.167 1.492 0.219c-0.854 0.583-1.281 1.51-1.281 2.781v2.445c-0.472-0.14-0.937-0.306-1.394-0.5-1.6-0.677-3.037-1.646-4.272-2.881-1.235-1.235-2.204-2.672-2.881-4.272-0.7-1.655-1.055-3.414-1.055-5.23s0.355-3.575 1.055-5.23c0.677-1.6 1.646-3.037 2.881-4.272s2.672-2.204 4.272-2.881c1.655-0.7 3.415-1.055 5.23-1.055s3.575 0.355 5.23 1.055c1.6 0.677 3.037 1.646 4.272 2.881 1.235 1.235 2.204 2.672 2.881 4.272 0.7 1.655 1.055 3.415 1.055 5.23s-0.355 3.575-1.055 5.23c-0.677 1.6-1.646 3.037-2.881 4.272z"></path>
</g>
<g id="icon-github4">
	<path class="path1" d="M7.352 7.772c-1.587 0-2.953 0.525-4.096 1.575-1.19 1.12-1.786 2.521-1.786 4.201 0 1.12 0.324 2.171 0.978 3.151 0.584 0.91 1.193 1.494 1.993 1.751v0.070c-0.8 0.326-1.155 1.143-1.155 2.451 0 1.004 0.355 1.751 1.155 2.241v0.070c-2.208 0.723-3.219 2.065-3.219 4.026 0 1.704 0.742 2.953 2.19 3.746 1.143 0.63 2.612 0.945 4.386 0.945 4.318 0 6.481-1.809 6.481-5.427 0-2.264-1.666-3.653-5.004-4.166-0.77-0.116-1.353-0.397-1.749-0.84-0.303-0.303-0.454-0.607-0.454-0.91 0-0.863 0.467-1.366 1.401-1.506 1.424-0.21 2.585-0.869 3.484-1.978 0.898-1.109 1.348-2.41 1.348-3.904 0-0.467-0.141-0.969-0.328-1.505 0.607-0.14 1.033-0.269 1.353-0.385v-3.606c-1.408 0.56-2.718 0.84-3.839 0.84-0.98-0.56-1.995-0.84-3.138-0.84zM7.738 25.243c1.961 0 2.941 0.595 2.941 1.786 0 1.261-0.899 1.89-2.696 1.89-2.054 0-3.081-0.607-3.081-1.82-0-1.237 0.945-1.856 2.836-1.856zM7.492 16c-1.47 0-2.206-0.805-2.206-2.416 0-1.727 0.735-2.591 2.206-2.591 0.7 0 1.249 0.269 1.645 0.805 0.327 0.49 0.49 1.074 0.49 1.751 0 1.634-0.712 2.451-2.136 2.451zM18.137 0c-0.677 0-1.254 0.257-1.733 0.77-0.479 0.514-0.718 1.132-0.718 1.856 0 0.7 0.239 1.307 0.718 1.821 0.478 0.514 1.056 0.77 1.733 0.77 0.653 0 1.22-0.256 1.698-0.77 0.479-0.514 0.718-1.12 0.718-1.821 0-0.724-0.239-1.342-0.718-1.855-0.479-0.514-1.045-0.77-1.698-0.77zM20.098 8h-3.956c0.047 0.448-0.020 1.126-0.020 2.223v10.888c0 1.12 0.067 2.024 0.020 2.376h3.956c-0.047-0.512-0.169-1.396-0.169-2.586v-10.748c-0-1.027 0.122-1.705 0.169-2.153zM28.823 20.131c-1.027 0-1.534-0.782-1.534-2.346v-6.457h1.558c0.28 0 0.532-0.015 0.847 0.008 0.315 0.023 0.442 0.008 0.602 0.008v-3.343h-3.008v-1.488c0-0.56 0.088-1.072 0.158-1.392h-4.061c0.070 0.32 0.063 0.809 0.063 1.462v1.418h-1.76v3.343c0.48-0.070 0.909-0.105 1.212-0.105l0.548 0.035v6.337c0 1.961 0.249 3.396 0.739 4.306 0.654 1.214 1.801 1.821 3.504 1.821 1.214 0 2.285-0.233 3.085-0.7v-3.501c-0.64 0.397-1.231 0.595-1.954 0.595z"></path>
</g>
<g id="icon-github5">
	<path class="path1" d="M8.233 23.73c0 0.845 0.715 1.268 2.146 1.268 1.252 0 1.878-0.439 1.878-1.317 0-0.829-0.683-1.244-2.048-1.244-1.317-0-1.975 0.43-1.975 1.292zM26.667 0h-21.333c-2.934 0-5.334 2.4-5.334 5.334v21.332c0 2.936 2.4 5.334 5.334 5.334h21.333c2.933 0 5.333-2.398 5.333-5.334v-21.332c0-2.934-2.399-5.334-5.333-5.334zM14.867 12.781c-0.228 0.081-0.553 0.171-0.975 0.268 0.13 0.374 0.195 0.723 0.195 1.049 0 1.040-0.313 1.947-0.939 2.719-0.626 0.772-1.435 1.231-2.426 1.378-0.65 0.098-0.975 0.447-0.975 1.049 0 0.211 0.106 0.423 0.317 0.634 0.276 0.309 0.683 0.504 1.219 0.585 2.325 0.358 3.487 1.325 3.487 2.902 0 2.52-1.504 3.78-4.511 3.78-1.236 0-2.252-0.22-3.048-0.658-1.008-0.553-1.512-1.422-1.512-2.609 0-1.366 0.756-2.3 2.268-2.804v-0.049c-0.553-0.341-0.829-0.862-0.829-1.561 0-0.91 0.26-1.48 0.78-1.707v-0.049c-0.52-0.179-0.984-0.585-1.39-1.22-0.455-0.683-0.683-1.414-0.683-2.195 0-1.171 0.415-2.146 1.244-2.926 0.797-0.732 1.748-1.097 2.853-1.097 0.797 0 1.536 0.195 2.219 0.585 0.78 0 1.683-0.195 2.707-0.585l-0 2.512zM18.818 21.219h-2.756c0.033-0.325 0.049-0.878 0.049-1.658v-7.584c0-0.764-0.016-1.293-0.049-1.585h2.756c-0.033 0.309-0.049 0.821-0.049 1.536v7.486c0 0.829 0.016 1.431 0.049 1.805zM18.635 7.953c-0.333 0.358-0.728 0.536-1.183 0.536-0.471 0-0.874-0.179-1.207-0.536-0.333-0.358-0.5-0.78-0.5-1.268 0-0.504 0.167-0.935 0.5-1.293 0.333-0.358 0.736-0.537 1.207-0.537 0.455 0 0.849 0.179 1.183 0.537 0.333 0.358 0.5 0.788 0.5 1.293 0 0.488-0.167 0.91-0.5 1.268zM26.303 20.901c-0.602 0.325-1.325 0.488-2.171 0.488-1.187 0-2.008-0.422-2.463-1.268-0.342-0.634-0.512-1.634-0.512-2.999v-4.365h0.024v-0.049l-0.366-0.024c-0.211 0-0.488 0.024-0.829 0.073v-2.365h1.195v-0.951c0-0.455-0.024-0.821-0.073-1.098h2.829c-0.048 0.309-0.073 0.658-0.073 1.049v1h2.121v2.365c-0.081 0-0.232-0.008-0.451-0.024-0.22-0.016-0.427-0.025-0.622-0.025h-1.049v4.536c0 1.090 0.358 1.634 1.073 1.634 0.504 0 0.959-0.138 1.366-0.415v2.439zM10.038 12.513c-1.024 0-1.536 0.602-1.536 1.805 0 1.122 0.512 1.683 1.536 1.683 0.992 0 1.488-0.569 1.488-1.707 0-0.472-0.114-0.878-0.341-1.219-0.276-0.374-0.659-0.561-1.146-0.561z"></path>
</g>
<g id="icon-settings">
	<path class="path1" d="M30.391 12.68l-3.064-0.614c-0.154-0.443-0.336-0.873-0.537-1.289l1.736-2.604c0.529-0.793 0.424-1.85-0.25-2.523l-1.924-1.924c-0.387-0.387-0.898-0.586-1.416-0.586-0.383 0-0.77 0.11-1.107 0.336l-2.604 1.735c-0.418-0.202-0.848-0.382-1.291-0.536l-0.614-3.065c-0.186-0.936-1.008-1.608-1.961-1.608h-2.72c-0.953 0-1.774 0.673-1.961 1.608l-0.614 3.065c-0.443 0.154-0.873 0.335-1.289 0.536l-2.603-1.735c-0.339-0.226-0.725-0.336-1.109-0.336-0.517 0-1.028 0.199-1.415 0.586l-1.923 1.924c-0.674 0.674-0.779 1.73-0.25 2.523l1.735 2.604c-0.202 0.417-0.382 0.847-0.536 1.29l-3.066 0.613c-0.935 0.187-1.608 1.008-1.608 1.961v2.72c0 0.953 0.673 1.775 1.608 1.961l3.065 0.615c0.154 0.443 0.335 0.873 0.536 1.289l-1.734 2.604c-0.529 0.793-0.424 1.85 0.25 2.523l1.924 1.924c0.387 0.387 0.898 0.586 1.415 0.586 0.384 0 0.771-0.111 1.108-0.336l2.604-1.736c0.417 0.203 0.847 0.383 1.29 0.537l0.613 3.064c0.187 0.936 1.008 1.609 1.961 1.609h2.72c0.953 0 1.775-0.674 1.961-1.609l0.615-3.064c0.443-0.154 0.873-0.336 1.289-0.537l2.604 1.736c0.338 0.225 0.725 0.336 1.107 0.336 0.518 0 1.029-0.199 1.416-0.586l1.924-1.924c0.674-0.674 0.779-1.73 0.25-2.523l-1.736-2.604c0.203-0.418 0.383-0.848 0.537-1.291l3.064-0.613c0.935-0.185 1.609-1.008 1.609-1.961v-2.72c0-0.953-0.674-1.774-1.609-1.961zM26.934 17.975c-0.695 0.139-1.264 0.635-1.496 1.305-0.129 0.369-0.279 0.727-0.447 1.074-0.311 0.639-0.258 1.393 0.135 1.982l1.736 2.604-1.924 1.924-2.604-1.736c-0.334-0.223-0.721-0.336-1.109-0.336-0.297 0-0.596 0.066-0.871 0.199-0.348 0.168-0.705 0.32-1.076 0.449-0.668 0.232-1.164 0.801-1.303 1.496l-0.615 3.066h-2.72l-0.613-3.066c-0.139-0.695-0.635-1.264-1.304-1.496-0.369-0.129-0.728-0.279-1.075-0.447-0.276-0.135-0.574-0.201-0.872-0.201-0.389 0-0.775 0.113-1.109 0.336l-2.604 1.736-1.924-1.924 1.735-2.604c0.393-0.59 0.444-1.344 0.137-1.98-0.168-0.348-0.319-0.705-0.448-1.076-0.232-0.668-0.802-1.164-1.496-1.303l-3.065-0.615-0.002-2.721 3.066-0.613c0.694-0.139 1.264-0.635 1.496-1.304 0.129-0.369 0.278-0.728 0.447-1.075 0.31-0.638 0.258-1.392-0.136-1.981l-1.734-2.604 1.923-1.924 2.604 1.735c0.334 0.223 0.721 0.336 1.109 0.336 0.297 0 0.595-0.066 0.871-0.199 0.347-0.168 0.705-0.319 1.075-0.448 0.669-0.232 1.165-0.802 1.304-1.496l0.614-3.065 2.72-0.001 0.613 3.066c0.139 0.694 0.635 1.264 1.305 1.496 0.369 0.129 0.727 0.278 1.074 0.447 0.277 0.134 0.574 0.2 0.873 0.2 0.389 0 0.775-0.113 1.109-0.336l2.604-1.735 1.924 1.924-1.736 2.604c-0.393 0.59-0.443 1.343-0.137 1.98 0.168 0.347 0.32 0.705 0.449 1.075 0.232 0.669 0.801 1.165 1.496 1.304l3.064 0.614 0.003 2.72-3.066 0.614zM16 9.001c-3.865 0-7 3.135-7 7 0 3.866 3.135 7 7 7s7-3.135 7-7c0-3.865-3.135-7-7-7zM16 22.127c-3.382 0-6.125-2.744-6.125-6.125 0-3.382 2.743-6.125 6.125-6.125 3.381 0 6.125 2.743 6.125 6.125 0 3.381-2.744 6.125-6.125 6.125zM16 12.001c-2.21 0-4 1.79-4 4 0 2.209 1.79 4 4 4 2.209 0 4-1.791 4-4 0-2.209-1.791-4-4-4zM16 19.002c-1.656 0-3-1.344-3-3 0-1.656 1.344-3 3-3s3 1.344 3 3c0 1.656-1.344 3-3 3z"></path>
</g>
<g id="icon-camera2">
	<path class="path1" d="M16 10.001c-4.419 0-8 3.581-8 8 0 4.418 3.581 8 8 8 4.418 0 8-3.582 8-8 0-4.418-3.582-8-8-8zM20.555 21.906c-2.156 2.516-5.943 2.807-8.459 0.65-2.517-2.156-2.807-5.944-0.65-8.459 2.155-2.517 5.943-2.807 8.459-0.65 2.515 2.155 2.806 5.944 0.65 8.459zM16 14.001c0.276 0 0.5 0.224 0.5 0.5s-0.224 0.5-0.5 0.5c-1.657 0-2.999 1.343-3 2.999v0.002c0 0.275-0.224 0.5-0.5 0.5s-0.5-0.225-0.5-0.5v-0.002c0.001-2.208 1.791-3.999 4-3.999zM29.492 9.042l-4.334-0.723-1.373-3.434c-0.459-1.145-1.553-1.885-2.785-1.885h-10c-1.232 0-2.326 0.74-2.786 1.886l-1.372 3.433-4.333 0.723c-1.454 0.241-2.509 1.485-2.509 2.958v15c0 1.654 1.346 3 3 3h26c1.654 0 3-1.346 3-3v-15c0-1.473-1.055-2.717-2.508-2.958zM30 27c0 0.553-0.447 1-1 1h-26c-0.553 0-1-0.447-1-1v-15c0-0.489 0.354-0.906 0.836-0.986l5.444-0.907 1.791-4.478c0.153-0.379 0.52-0.629 0.929-0.629h10c0.408 0 0.775 0.249 0.928 0.629l1.791 4.478 5.445 0.907c0.482 0.080 0.836 0.497 0.836 0.986v15z"></path>
</g>
<g id="icon-location2">
	<path class="path1" d="M16.002 17.746c3.309 0 6-2.692 6-6s-2.691-6-6-6c-3.309 0-6 2.691-6 6s2.691 6 6 6zM16.002 6.746c2.758 0 5 2.242 5 5s-2.242 5-5 5c-2.758 0-5-2.242-5-5s2.242-5 5-5zM16 0c-6.618 0-12 5.316-12 12.001 0 7 6.001 14.161 10.376 19.194 0.016 0.020 0.718 0.805 1.586 0.805 0.002 0 0.073 0 0.077 0 0.867 0 1.57-0.785 1.586-0.805 4.377-5.033 10.377-12.193 10.377-19.194 0-6.685-5.383-12.001-12.002-12.001zM16.117 29.883c-0.021 0.020-0.082 0.064-0.135 0.098-0.010-0.027-0.084-0.086-0.129-0.133-3.665-4.217-9.853-11.334-9.853-17.847 0-5.514 4.487-10.001 10-10.001 5.516 0 10.002 4.487 10.002 10.002 0 6.512-6.188 13.629-9.885 17.881z"></path>
</g>
<g id="icon-bubble">
	<path class="path1" d="M16 7c0.276 0 0.5 0.224 0.5 0.5s-0.225 0.5-0.5 0.5c-5.327 0-10 2.804-10 6 0 0.276-0.224 0.5-0.5 0.5-0.276 0-0.5-0.224-0.5-0.5 0-3.794 5.037-7 11-7zM16 2c-8.837 0-16 5.373-16 12 0 4.127 2.779 7.766 7.008 9.926 0 0.027-0.008 0.045-0.008 0.074 0 1.793-1.339 3.723-1.928 4.736 0.001 0 0.002 0 0.002 0-0.047 0.11-0.074 0.231-0.074 0.358 0 0.5 0.405 0.906 0.906 0.906 0.094 0 0.259-0.025 0.255-0.014 3.125-0.512 6.069-3.383 6.753-4.215 0.999 0.147 2.029 0.229 3.086 0.229 8.835 0 16-5.373 16-12 0-6.627-7.164-12-16-12zM16 24c-0.917 0-1.858-0.070-2.796-0.207-0.097-0.016-0.194-0.021-0.29-0.021-0.594 0-1.163 0.264-1.546 0.73-0.428 0.521-1.646 1.684-3.085 2.539 0.39-0.895 0.695-1.898 0.716-2.932 0.006-0.064 0.009-0.129 0.009-0.184 0-0.752-0.421-1.439-1.090-1.781-3.706-1.892-5.918-4.937-5.918-8.144 0-5.514 6.28-10 14-10 7.718 0 14 4.486 14 10 0 5.514-6.281 10-14 10z"></path>
</g>
<g id="icon-location3">
	<path class="path1" d="M16 3.2c-4.419 0-8 3.582-8 8 0 7.638 8 17.6 8 17.6s8-9.962 8-17.6c0-4.418-3.581-8-8-8zM16 15.616c-2.386 0-4.32-1.934-4.32-4.32s1.934-4.32 4.32-4.32 4.32 1.934 4.32 4.32-1.934 4.32-4.32 4.32z"></path>
</g>
<g id="icon-share2">
	<path class="path1" d="M24 20.8c-1.101 0-2.109 0.373-2.918 0.995l-8.35-5.010c0.040-0.256 0.069-0.518 0.069-0.786 0-0.269-0.029-0.53-0.069-0.786l8.35-5.010c0.81 0.622 1.818 0.995 2.918 0.995 2.65 0 4.8-2.149 4.8-4.8s-2.15-4.8-4.8-4.8-4.8 2.149-4.8 4.8c0 0.267 0.029 0.53 0.070 0.786l-8.35 5.011c-0.81-0.624-1.819-0.997-2.92-0.997-2.651 0-4.8 2.149-4.8 4.8 0 2.65 2.149 4.8 4.8 4.8 1.101 0 2.11-0.373 2.92-0.995l8.35 5.010c-0.042 0.256-0.070 0.517-0.070 0.786 0 2.65 2.15 4.8 4.8 4.8s4.8-2.15 4.8-4.8-2.15-4.8-4.8-4.8z"></path>
</g>
<g id="icon-cog2">
	<path class="path1" d="M26.856 16c0-1.677 1.032-3 2.584-3.909-0.282-0.934-0.65-1.832-1.106-2.675-1.744 0.456-3.154-0.227-4.338-1.411-1.187-1.186-1.55-2.597-1.094-4.338-0.843-0.456-1.738-0.829-2.675-1.107-0.909 1.554-2.552 2.586-4.227 2.586-1.675 0-3.317-1.032-4.227-2.586-0.938 0.278-1.832 0.651-2.675 1.106 0.454 1.742 0.093 3.154-1.093 4.339-1.186 1.184-2.597 1.867-4.338 1.413-0.456 0.842-0.827 1.739-1.107 2.674 1.554 0.909 2.586 2.232 2.586 3.909 0 1.675-1.032 3.318-2.586 4.229 0.28 0.936 0.651 1.832 1.107 2.675 1.742-0.456 3.152-0.093 4.338 1.093 1.186 1.186 1.547 2.595 1.093 4.338 0.843 0.456 1.739 0.829 2.675 1.107 0.91-1.555 2.552-2.586 4.227-2.586 1.675 0 3.32 1.032 4.229 2.586 0.938-0.28 1.832-0.651 2.675-1.107-0.456-1.742-0.094-3.152 1.094-4.338 1.184-1.184 2.594-1.867 4.338-1.413 0.456-0.843 0.826-1.739 1.106-2.675-1.554-0.91-2.586-2.234-2.586-3.909zM16 21.845c-3.227 0-5.843-2.618-5.843-5.845s2.616-5.845 5.843-5.845c3.229 0 5.845 2.618 5.845 5.845s-2.616 5.845-5.845 5.845z"></path>
</g>
<g id="icon-camera3">
	<path class="path1" d="M16 12.8c-2.65 0-4.8 2.15-4.8 4.8 0 2.651 2.15 4.8 4.8 4.8 2.651 0 4.8-2.149 4.8-4.8 0-2.65-2.149-4.8-4.8-4.8zM28.8 8h-3.838c-0.528 0-1.098-0.41-1.264-0.91l-0.992-2.978c-0.17-0.502-0.738-0.912-1.266-0.912h-10.88c-0.528 0-1.098 0.41-1.262 0.91l-0.995 2.979c-0.166 0.501-0.734 0.91-1.262 0.91h-3.84c-1.76 0-3.2 1.44-3.2 3.2v14.4c0 1.76 1.44 3.2 3.2 3.2h25.6c1.762 0 3.2-1.44 3.2-3.2v-14.4c0-1.76-1.438-3.2-3.2-3.2zM16 25.6c-4.419 0-8-3.581-8-8 0-4.418 3.581-8 8-8 4.418 0 8 3.582 8 8 0 4.419-3.582 8-8 8zM27.68 13.437c-0.618 0-1.118-0.501-1.118-1.12s0.501-1.12 1.118-1.12c0.619 0 1.12 0.501 1.12 1.12s-0.501 1.12-1.12 1.12z"></path>
</g>
<g id="icon-upload2">
	<path class="path1" d="M24.341 12.222c-0.44 0-0.874 0.038-1.294 0.109-1.050-3.432-4.301-5.933-8.154-5.933-4.701 0-8.51 3.725-8.51 8.32 0 0.41 0.032 0.813 0.091 1.208-0.226-0.026-0.453-0.043-0.686-0.043-3.195 0-5.787 2.534-5.787 5.658 0 3.125 2.592 5.658 5.787 5.658h7.973v-6.080h-3.36l5.6-7.36 5.6 7.36h-3.36v6.080h6.099c4.232 0 7.659-3.354 7.659-7.488 0.002-4.136-3.427-7.488-7.658-7.488z"></path>
</g>
<g id="icon-github6">
	<path class="path1" d="M21.088 18.096c-1.149 0-2.080 1.29-2.080 2.878 0 1.59 0.931 2.88 2.080 2.88s2.080-1.29 2.080-2.88c-0.002-1.59-0.933-2.878-2.080-2.878zM28.33 10.602c0.237-0.584 0.248-3.904-1.014-7.082 0 0-2.899 0.317-7.283 3.326-0.92-0.254-2.477-0.381-4.032-0.381-1.557 0-3.112 0.128-4.034 0.381-4.382-3.010-7.28-3.326-7.28-3.326-1.262 3.178-1.253 6.498-1.014 7.082-1.485 1.613-2.392 3.549-2.392 6.194 0 11.498 9.539 11.682 11.947 11.682 0.546 0 1.63 0.002 2.774 0.003 1.144-0.002 2.229-0.003 2.771-0.003 2.41 0 11.947-0.184 11.947-11.682 0-2.645-0.906-4.581-2.39-6.194zM16.045 27.064h-0.088c-6.035 0-10.736-0.72-10.736-6.586 0-1.405 0.498-2.709 1.674-3.79 1.966-1.803 5.29-0.848 9.062-0.848 0.014 0 0.030 0 0.045-0.002 0.016 0 0.030 0.002 0.043 0.002 3.773 0 7.098-0.955 9.062 0.848 1.176 1.082 1.672 2.386 1.672 3.79 0 5.866-4.698 6.586-10.734 6.586zM10.914 18.096c-1.149 0-2.080 1.29-2.080 2.878 0 1.59 0.931 2.88 2.080 2.88s2.080-1.29 2.080-2.88c0-1.59-0.931-2.878-2.080-2.878z"></path>
</g>
<g id="icon-github7">
	<path class="path1" d="M16.022 15.918c-0.008 0-0.016 0-0.022 0-0.010 0-0.016 0-0.024 0-1.906 0-3.586-0.483-4.579 0.43-0.595 0.547-0.845 1.205-0.845 1.914 0 2.965 2.374 3.328 5.424 3.328h0.045c3.050 0 5.424-0.365 5.424-3.328 0-0.709-0.25-1.366-0.846-1.914-0.989-0.914-2.67-0.43-4.576-0.43zM13.43 19.968c-0.581 0-1.051-0.651-1.051-1.454s0.47-1.454 1.051-1.454 1.051 0.651 1.051 1.454-0.472 1.454-1.051 1.454zM18.568 19.968c-0.578 0-1.050-0.651-1.050-1.454s0.47-1.454 1.050-1.454c0.581 0 1.053 0.651 1.053 1.454s-0.47 1.454-1.053 1.454zM16 0.64c-8.483 0-15.36 6.877-15.36 15.36s6.877 15.36 15.36 15.36c8.48 0 15.358-6.877 15.358-15.36s-6.877-15.36-15.358-15.36zM17.4 22.304c-0.275 0-0.822 0-1.4 0.002-0.579-0.002-1.126-0.002-1.4-0.002-1.218 0-6.037-0.094-6.037-5.902 0-1.336 0.458-2.314 1.208-3.128-0.12-0.296-0.126-1.974 0.512-3.578 0 0 1.466 0.16 3.68 1.68 0.464-0.128 1.25-0.192 2.037-0.192 0.784 0 1.571 0.064 2.037 0.192 2.216-1.52 3.678-1.68 3.678-1.68 0.637 1.605 0.634 3.283 0.512 3.578 0.75 0.814 1.21 1.792 1.21 3.128 0 5.81-4.818 5.902-6.037 5.902z"></path>
</g>
<g id="icon-twitter4">
	<path class="path1" d="M30.72 6.869c-1.085 0.482-2.248 0.805-3.47 0.952 1.248-0.747 2.206-1.931 2.656-3.341-1.166 0.691-2.459 1.195-3.834 1.466-1.102-1.174-2.672-1.907-4.41-1.907-3.336 0-6.040 2.704-6.040 6.038 0 0.474 0.053 0.934 0.157 1.376-5.019-0.251-9.47-2.656-12.448-6.31-0.522 0.891-0.821 1.93-0.821 3.037 0 2.096 1.067 3.944 2.688 5.027-0.99-0.032-1.922-0.302-2.736-0.755 0 0.026 0 0.050 0 0.075 0 2.926 2.083 5.366 4.845 5.923-0.506 0.138-1.040 0.211-1.592 0.211-0.389 0-0.766-0.037-1.136-0.107 0.768 2.4 3 4.146 5.642 4.194-2.067 1.621-4.67 2.586-7.501 2.586-0.488 0-0.968-0.029-1.44-0.085 2.672 1.714 5.846 2.714 9.259 2.714 11.109 0 17.184-9.203 17.184-17.186 0-0.261-0.005-0.522-0.018-0.781 1.181-0.851 2.203-1.915 3.014-3.126z"></path>
</g>
<g id="icon-twitter5">
	<path class="path1" d="M16 0.64c-8.483 0-15.36 6.877-15.36 15.36s6.877 15.36 15.36 15.36 15.36-6.877 15.36-15.36-6.877-15.36-15.36-15.36zM22.246 13.224c0.006 0.13 0.010 0.261 0.010 0.392 0 3.997-3.043 8.606-8.608 8.606-1.707 0-3.299-0.499-4.637-1.36 0.237 0.029 0.478 0.042 0.722 0.042 1.418 0 2.722-0.483 3.758-1.296-1.323-0.024-2.442-0.899-2.827-2.099 0.184 0.035 0.374 0.054 0.568 0.054 0.277 0 0.544-0.037 0.797-0.106-1.382-0.278-2.427-1.501-2.427-2.966 0-0.013 0-0.026 0.002-0.037 0.408 0.226 0.875 0.362 1.37 0.378-0.81-0.542-1.344-1.467-1.344-2.518 0-0.555 0.149-1.075 0.41-1.522 1.491 1.832 3.722 3.037 6.235 3.162-0.051-0.221-0.078-0.451-0.078-0.69 0-1.67 1.355-3.026 3.026-3.026 0.87 0 1.656 0.366 2.208 0.955 0.69-0.134 1.338-0.386 1.922-0.733-0.227 0.706-0.706 1.299-1.331 1.674 0.613-0.074 1.195-0.235 1.738-0.477-0.405 0.606-0.92 1.139-1.51 1.566z"></path>
</g>
</defs>

<g fill="#000000">
	<use xlink:href="#icon-camera" transform="translate(0 0)"></use>
	<use xlink:href="#icon-cog" transform="translate(48 0)"></use>
	<use xlink:href="#icon-align-justify" transform="translate(96 0)"></use>
	<use xlink:href="#icon-circle-plus" transform="translate(144 0)"></use>
	<use xlink:href="#icon-circle-minus" transform="translate(192 0)"></use>
	<use xlink:href="#icon-circle-check" transform="translate(240 0)"></use>
	<use xlink:href="#icon-circle-cross" transform="translate(288 0)"></use>
	<use xlink:href="#icon-square-plus" transform="translate(336 0)"></use>
	<use xlink:href="#icon-square-check" transform="translate(384 0)"></use>
	<use xlink:href="#icon-cloud-upload" transform="translate(432 0)"></use>
	<use xlink:href="#icon-upload" transform="translate(480 0)"></use>
	<use xlink:href="#icon-location" transform="translate(528 0)"></use>
	<use xlink:href="#icon-location-2" transform="translate(576 0)"></use>
	<use xlink:href="#icon-head" transform="translate(624 0)"></use>
	<use xlink:href="#icon-share" transform="translate(672 0)"></use>
	<use xlink:href="#icon-cross" transform="translate(720 0)"></use>
	<use xlink:href="#icon-outbox" transform="translate(0 48)"></use>
	<use xlink:href="#icon-twitter" transform="translate(48 48)"></use>
	<use xlink:href="#icon-twitter2" transform="translate(96 48)"></use>
	<use xlink:href="#icon-twitter3" transform="translate(144 48)"></use>
	<use xlink:href="#icon-github" transform="translate(192 48)"></use>
	<use xlink:href="#icon-github2" transform="translate(240 48)"></use>
	<use xlink:href="#icon-github3" transform="translate(288 48)"></use>
	<use xlink:href="#icon-github4" transform="translate(336 48)"></use>
	<use xlink:href="#icon-github5" transform="translate(384 48)"></use>
	<use xlink:href="#icon-settings" transform="translate(432 48)"></use>
	<use xlink:href="#icon-camera2" transform="translate(480 48)"></use>
	<use xlink:href="#icon-location2" transform="translate(528 48)"></use>
	<use xlink:href="#icon-bubble" transform="translate(576 48)"></use>
	<use xlink:href="#icon-location3" transform="translate(624 48)"></use>
	<use xlink:href="#icon-share2" transform="translate(672 48)"></use>
	<use xlink:href="#icon-cog2" transform="translate(720 48)"></use>
	<use xlink:href="#icon-camera3" transform="translate(0 96)"></use>
	<use xlink:href="#icon-upload2" transform="translate(48 96)"></use>
	<use xlink:href="#icon-github6" transform="translate(96 96)"></use>
	<use xlink:href="#icon-github7" transform="translate(144 96)"></use>
	<use xlink:href="#icon-twitter4" transform="translate(192 96)"></use>
	<use xlink:href="#icon-twitter5" transform="translate(240 96)"></use>
</g>

</svg>
